<svg width="125" height="125" viewBox="0 0 125 125" fill="none" xmlns="http://www.w3.org/2000/svg">
<path d="M34.0069 43.9861C34.0069 43.9861 14.3715 56 19.151 77.2188C25.6614 105.865 46.5937 101.71 46.5937 101.71L54.8402 99.5399L71.3333 99.1059C71.3333 99.1059 86.9583 103.88 96.0729 98.6719C102.404 95.0538 105.884 83.5886 107.753 78.5191C108.578 76.2847 107.858 66.1215 106.87 62.132C105.85 58.006 103.723 54.2371 100.717 51.2327L97.809 48.3247L93.4687 44.8524C93.4687 44.8524 102.771 30.6597 100.571 24.8125C99.1874 21.1337 95.7534 16.0104 82.184 25.3212L80.0138 27.0573C80.0138 27.0573 63.0867 18.8108 46.1597 26.6233C46.1597 26.6233 42.2968 24.3212 39.0156 22.0747C33.3854 18.224 27.6492 20.3004 25.8003 26.8663L25.8055 27.0747C25.8993 30.5174 26.4687 33.9497 27.6718 37.1788C28.9392 40.5816 31.9131 43.4011 34.0069 43.9844" fill="#F4AA41"/>
<path d="M21.5382 73.3854C27.0451 77.592 39.5938 84.4983 54.9965 75.7378C55.2357 75.6012 55.5008 75.5158 55.7747 75.4872C56.0487 75.4586 56.3257 75.4873 56.588 75.5716C56.8502 75.6558 57.0921 75.7938 57.2982 75.9766C57.5042 76.1595 57.6699 76.3833 57.7847 76.6337C58.7535 78.809 60.6615 81.7726 63.6649 81.0226C67.0087 80.1858 69.974 77.4635 71.3646 76.0156C71.6241 75.7457 71.9543 75.5543 72.3175 75.4631C72.6807 75.3719 73.0622 75.3847 73.4184 75.5C78.2379 77.033 93.2674 81.9236 105.425 73.592C106.896 72.5851 108.863 73.7448 108.59 75.5069C107.696 81.2257 106.875 90.9618 97.033 99.2812C96.8281 99.4549 82.7865 103.969 73.0573 99.3142C72.7811 99.1781 72.4762 99.1108 72.1684 99.118L55.8611 99.5347C55.6725 99.5382 55.4873 99.5689 55.3056 99.6267C53.4306 100.236 41.651 103.767 33.283 99.2517C25.2379 95.4028 19.4392 83.0694 18.3576 75.2934C18.1111 73.5191 20.1163 72.2986 21.5382 73.3854Z" fill="white"/>
<path d="M55.7084 74.5121L70.2483 74.368C70.2483 74.368 69.0539 81.2031 63.6285 81.2031C58.2032 81.2031 55.7084 74.5121 55.7084 74.5121Z" fill="#EA5A47"/>
<path d="M48.2882 60.9132C51.1647 60.9132 53.4965 58.5813 53.4965 55.7049C53.4965 52.8284 51.1647 50.4965 48.2882 50.4965C45.4117 50.4965 43.0798 52.8284 43.0798 55.7049C43.0798 58.5813 45.4117 60.9132 48.2882 60.9132Z" fill="black"/>
<path d="M77.1511 60.9132C80.0276 60.9132 82.3594 58.5813 82.3594 55.7049C82.3594 52.8284 80.0276 50.4965 77.1511 50.4965C74.2746 50.4965 71.9427 52.8284 71.9427 55.7049C71.9427 58.5813 74.2746 60.9132 77.1511 60.9132Z" fill="black"/>
<path d="M56.2101 75.9653C56.2101 75.9653 57.5122 80.4514 62.7205 81.0295C67.9288 81.6076 69.6649 75.9653 69.6649 75.9653" stroke="black" stroke-width="0.5" stroke-linecap="round" stroke-linejoin="round"/>
<path d="M62.7205 81.0295L62.9375 88.5521M62.9375 88.5521C65.7656 90.3681 67.4027 91.1736 71.6892 90.2882M62.9375 88.5521C59.5382 90.2882 57.8732 90.8681 54.4739 90.2882M72.7118 98.3906C82.0816 103.208 89.526 101.38 94.8507 97.9688M19.1493 77.2188C12.5781 53.7396 34.7986 44.7153 34.7986 44.7153C29.5902 42.9792 20.3298 28.0781 27.9982 21.1337C35.6666 14.1892 46.2274 26.9201 46.2274 26.9201C46.2274 26.9201 63.3177 19.6875 80.9583 26.9201C80.9583 26.9201 91.5208 14.1892 99.1875 21.1337C106.854 28.0781 97.5972 42.9792 92.3889 44.7153C92.3889 44.7153 114.231 53.5573 108.198 76.6215M33.3698 98.5955C38.6093 101.585 45.6962 102.903 54.4739 98.3906" stroke="black" stroke-width="0.5" stroke-linecap="round" stroke-linejoin="round"/>
<path d="M46.2274 75.5312C46.2274 75.5312 16.7135 80.1615 11.9392 95.9306M47.5295 81.9913C47.5295 81.9913 26.2587 85.8403 22.3559 105.047M80.9583 75.5312C80.9583 75.5312 110.472 80.1615 115.247 95.9306M79.6562 81.9913C79.6562 81.9913 100.043 88.5538 104.83 105.047" stroke="black" stroke-width="0.5" stroke-linecap="round" stroke-linejoin="round"/>
</svg>
