<svg width="52" height="52" viewBox="0 0 52 52" fill="none" xmlns="http://www.w3.org/2000/svg">
<path d="M23.8333 28.1666H13C12.3861 28.1666 11.8719 27.9586 11.4573 27.5426C11.0428 27.1266 10.8348 26.6124 10.8333 25.9999C10.8319 25.3875 11.0399 24.8733 11.4573 24.4573C11.8748 24.0413 12.389 23.8333 13 23.8333H23.8333V12.9999C23.8333 12.386 24.0413 11.8718 24.4573 11.4573C24.8733 11.0427 25.3875 10.8347 26 10.8333C26.6124 10.8318 27.1274 11.0398 27.5448 11.4573C27.9623 11.8747 28.1695 12.3889 28.1667 12.9999V23.8333H39C39.6139 23.8333 40.1288 24.0413 40.5448 24.4573C40.9608 24.8733 41.1681 25.3875 41.1667 25.9999C41.1652 26.6124 40.9572 27.1273 40.5427 27.5448C40.1281 27.9622 39.6139 28.1695 39 28.1666H28.1667V38.9999C28.1667 39.6138 27.9587 40.1288 27.5427 40.5448C27.1267 40.9608 26.6124 41.168 26 41.1666C25.3875 41.1652 24.8733 40.9571 24.4573 40.5426C24.0413 40.128 23.8333 39.6138 23.8333 38.9999V28.1666Z" fill="#F24822"/>
</svg>
