<svg width="52" height="54" viewBox="0 0 52 54" fill="none" xmlns="http://www.w3.org/2000/svg">
<g filter="url(#filter0_d_155_377)">
<path d="M15.1667 45.5C13.975 45.5 12.9552 45.0761 12.1074 44.2282C11.2595 43.3803 10.8348 42.3598 10.8334 41.1667V13C10.2195 13 9.70525 12.792 9.29069 12.376C8.87614 11.96 8.66814 11.4458 8.66669 10.8333C8.66525 10.2209 8.87325 9.70667 9.29069 9.29067C9.70814 8.87467 10.2224 8.66667 10.8334 8.66667H19.5C19.5 8.05278 19.708 7.53856 20.124 7.124C20.54 6.70944 21.0543 6.50144 21.6667 6.5H30.3334C30.9473 6.5 31.4622 6.708 31.8782 7.124C32.2942 7.54 32.5015 8.05422 32.5 8.66667H41.1667C41.7806 8.66667 42.2955 8.87467 42.7115 9.29067C43.1275 9.70667 43.3348 10.2209 43.3334 10.8333C43.3319 11.4458 43.1239 11.9607 42.7094 12.3782C42.2948 12.7956 41.7806 13.0029 41.1667 13V41.1667C41.1667 42.3583 40.7428 43.3788 39.8949 44.2282C39.047 45.0775 38.0265 45.5014 36.8334 45.5H15.1667ZM36.8334 13H15.1667V41.1667H36.8334V13ZM21.6667 36.8333C22.2806 36.8333 22.7955 36.6253 23.2115 36.2093C23.6275 35.7933 23.8348 35.2791 23.8334 34.6667V19.5C23.8334 18.8861 23.6254 18.3719 23.2094 17.9573C22.7934 17.5428 22.2791 17.3348 21.6667 17.3333C21.0543 17.3319 20.54 17.5399 20.124 17.9573C19.708 18.3748 19.5 18.889 19.5 19.5V34.6667C19.5 35.2806 19.708 35.7955 20.124 36.2115C20.54 36.6275 21.0543 36.8348 21.6667 36.8333ZM30.3334 36.8333C30.9473 36.8333 31.4622 36.6253 31.8782 36.2093C32.2942 35.7933 32.5015 35.2791 32.5 34.6667V19.5C32.5 18.8861 32.292 18.3719 31.876 17.9573C31.46 17.5428 30.9458 17.3348 30.3334 17.3333C29.7209 17.3319 29.2067 17.5399 28.7907 17.9573C28.3747 18.3748 28.1667 18.889 28.1667 19.5V34.6667C28.1667 35.2806 28.3747 35.7955 28.7907 36.2115C29.2067 36.6275 29.7209 36.8348 30.3334 36.8333Z" fill="#F24822"/>
</g>
<defs>
<filter id="filter0_d_155_377" x="-4" y="0" width="60" height="60" filterUnits="userSpaceOnUse" color-interpolation-filters="sRGB">
<feFlood flood-opacity="0" result="BackgroundImageFix"/>
<feColorMatrix in="SourceAlpha" type="matrix" values="0 0 0 0 0 0 0 0 0 0 0 0 0 0 0 0 0 0 127 0" result="hardAlpha"/>
<feOffset dy="4"/>
<feGaussianBlur stdDeviation="2"/>
<feComposite in2="hardAlpha" operator="out"/>
<feColorMatrix type="matrix" values="0 0 0 0 0 0 0 0 0 0 0 0 0 0 0 0 0 0 0.25 0"/>
<feBlend mode="normal" in2="BackgroundImageFix" result="effect1_dropShadow_155_377"/>
<feBlend mode="normal" in="SourceGraphic" in2="effect1_dropShadow_155_377" result="shape"/>
</filter>
</defs>
</svg>
