<svg width="36" height="36" viewBox="0 0 36 36" fill="none" xmlns="http://www.w3.org/2000/svg">
<path fill-rule="evenodd" clip-rule="evenodd" d="M18.594 29.258L18.582 29.26L18.511 29.295L18.491 29.299L18.477 29.295L18.406 29.259C18.3954 29.2563 18.3874 29.2583 18.382 29.265L18.378 29.275L18.361 29.703L18.366 29.723L18.376 29.736L18.48 29.81L18.495 29.814L18.507 29.81L18.611 29.736L18.623 29.72L18.627 29.703L18.61 29.276C18.6074 29.2653 18.602 29.2593 18.594 29.258ZM18.858 29.145L18.844 29.147L18.66 29.24L18.65 29.25L18.647 29.261L18.665 29.691L18.67 29.703L18.6781 29.711L18.879 29.803C18.8917 29.8063 18.9014 29.8037 18.908 29.795L18.912 29.781L18.878 29.167C18.8747 29.1543 18.868 29.147 18.858 29.145ZM18.143 29.147C18.1386 29.1443 18.1334 29.1435 18.1283 29.1446C18.1233 29.1457 18.1189 29.1487 18.116 29.153L18.11 29.167L18.076 29.781C18.0767 29.793 18.0824 29.801 18.0931 29.805L18.108 29.803L18.309 29.71L18.319 29.702L18.322 29.691L18.34 29.261L18.337 29.249L18.327 29.239L18.143 29.147Z" fill="white"/>
<path fill-rule="evenodd" clip-rule="evenodd" d="M11.0001 15C11.0001 13.1435 11.7376 11.363 13.0503 10.0503C14.3631 8.7375 16.1435 8 18.0001 8C19.8566 8 21.637 8.7375 22.9498 10.0503C24.2626 11.363 25.0001 13.1435 25.0001 15V18.764L26.8221 22.408C26.9059 22.5757 26.9455 22.7621 26.9371 22.9494C26.9287 23.1368 26.8725 23.3188 26.7739 23.4783C26.6753 23.6379 26.5376 23.7695 26.3738 23.8608C26.21 23.9521 26.0256 24 25.8381 24H21.8741C21.6516 24.8582 21.1505 25.6183 20.4493 26.1609C19.7481 26.7035 18.8867 26.9979 18.0001 26.9979C17.1135 26.9979 16.252 26.7035 15.5508 26.1609C14.8496 25.6183 14.3485 24.8582 14.1261 24H10.1621C9.97453 24 9.79011 23.9521 9.62632 23.8608C9.46252 23.7695 9.32479 23.6379 9.2262 23.4783C9.1276 23.3188 9.07143 23.1368 9.063 22.9494C9.05457 22.7621 9.09418 22.5757 9.17805 22.408L11.0001 18.764V15ZM16.2681 24C16.4436 24.304 16.6961 24.5565 17.0001 24.732C17.3041 24.9075 17.649 24.9999 18.0001 24.9999C18.3511 24.9999 18.696 24.9075 19 24.732C19.304 24.5565 19.5565 24.304 19.7321 24H16.2681ZM18.0001 10C16.674 10 15.4022 10.5268 14.4645 11.4645C13.5268 12.4021 13.0001 13.6739 13.0001 15V18.764C13 19.0743 12.9278 19.3804 12.7891 19.658L11.6191 22H24.3821L23.2121 19.658C23.073 19.3805 23.0004 19.0744 23.0001 18.764V15C23.0001 13.6739 22.4733 12.4021 21.5356 11.4645C20.5979 10.5268 19.3261 10 18.0001 10Z" fill="white"/>
</svg>
