<svg width="100" height="100" viewBox="0 0 100 100" fill="none" xmlns="http://www.w3.org/2000/svg">
<circle cx="50" cy="50" r="50" fill="#A8A8A8"/>
<path d="M28.6666 65.9999C28.6666 63.1709 29.7904 60.4578 31.7908 58.4574C33.7912 56.4571 36.5043 55.3333 39.3333 55.3333H60.6666C63.4956 55.3333 66.2087 56.4571 68.2091 58.4574C70.2095 60.4578 71.3333 63.1709 71.3333 65.9999C71.3333 67.4144 70.7714 68.771 69.7712 69.7712C68.771 70.7713 67.4144 71.3333 66 71.3333H34C32.5855 71.3333 31.2289 70.7713 30.2287 69.7712C29.2285 68.771 28.6666 67.4144 28.6666 65.9999Z" stroke="#D9D9D9" stroke-width="4" stroke-linejoin="round"/>
<path d="M50 44.6666C54.4183 44.6666 58 41.0849 58 36.6666C58 32.2483 54.4183 28.6666 50 28.6666C45.5817 28.6666 42 32.2483 42 36.6666C42 41.0849 45.5817 44.6666 50 44.6666Z" stroke="#D9D9D9" stroke-width="4"/>
</svg>
