<svg width="36" height="36" viewBox="0 0 36 36" fill="none" xmlns="http://www.w3.org/2000/svg">
<path d="M15.5 22C13.6833 22 12.146 21.3707 10.888 20.112C9.63 18.8533 9.00067 17.316 9 15.5C8.99933 13.684 9.62867 12.1467 10.888 10.888C12.1473 9.62933 13.6847 9 15.5 9C17.3153 9 18.853 9.62933 20.113 10.888C21.373 12.1467 22.002 13.684 22 15.5C22 16.2333 21.8833 16.925 21.65 17.575C21.4167 18.225 21.1 18.8 20.7 19.3L26.3 24.9C26.4833 25.0833 26.575 25.3167 26.575 25.6C26.575 25.8833 26.4833 26.1167 26.3 26.3C26.1167 26.4833 25.8833 26.575 25.6 26.575C25.3167 26.575 25.0833 26.4833 24.9 26.3L19.3 20.7C18.8 21.1 18.225 21.4167 17.575 21.65C16.925 21.8833 16.2333 22 15.5 22ZM15.5 20C16.75 20 17.8127 19.5627 18.688 18.688C19.5633 17.8133 20.0007 16.7507 20 15.5C19.9993 14.2493 19.562 13.187 18.688 12.313C17.814 11.439 16.7513 11.0013 15.5 11C14.2487 10.9987 13.1863 11.4363 12.313 12.313C11.4397 13.1897 11.002 14.252 11 15.5C10.998 16.748 11.4357 17.8107 12.313 18.688C13.1903 19.5653 14.2527 20.0027 15.5 20Z" fill="white"/>
</svg>
